<svg xmlns="http://www.w3.org/2000/svg" viewBox="0 0 64 64" role="img" aria-label="Justodo">
  <defs>
    <linearGradient id="bg" x1="8" x2="56" y1="6" y2="58" gradientUnits="userSpaceOnUse">
      <stop offset="0" stop-color="#f8fffc"/>
      <stop offset="0.45" stop-color="#d8f1e8"/>
      <stop offset="1" stop-color="#dfe8ff"/>
    </linearGradient>
    <linearGradient id="mark" x1="18" x2="49" y1="18" y2="48" gradientUnits="userSpaceOnUse">
      <stop offset="0" stop-color="#187452"/>
      <stop offset="1" stop-color="#245fd6"/>
    </linearGradient>
    <filter id="shadow" x="-30%" y="-30%" width="160%" height="160%">
      <feDropShadow dx="0" dy="6" stdDeviation="5" flood-color="#1f3430" flood-opacity="0.22"/>
    </filter>
  </defs>
  <rect width="64" height="64" rx="16" fill="url(#bg)"/>
  <path d="M9 18c8-8 26-9 44-2 3 14 0 30-10 40-17 4-30-1-37-12-1-10 0-19 3-26Z" fill="#ffffff" opacity="0.42"/>
  <g filter="url(#shadow)">
    <rect x="17" y="14" width="31" height="38" rx="8" fill="#ffffff" opacity="0.78"/>
    <rect x="17" y="14" width="31" height="38" rx="8" fill="none" stroke="#ffffff" stroke-opacity="0.7"/>
    <path d="M26 18h13a4 4 0 0 1 4 4v2H22v-2a4 4 0 0 1 4-4Z" fill="url(#mark)"/>
    <path d="M25 35.5 31 41l11-14" fill="none" stroke="url(#mark)" stroke-width="5" stroke-linecap="round" stroke-linejoin="round"/>
  </g>
  <circle cx="49" cy="16" r="5" fill="#187452" opacity="0.9"/>
</svg>
